<svg id="visual" viewBox="0 0 540 960" width="540" height="960" xmlns="http://www.w3.org/2000/svg" xmlns:xlink="http://www.w3.org/1999/xlink" version="1.1"><rect x="0" y="0" width="540" height="960" fill="#222831"></rect><defs><linearGradient id="grad1_0" x1="0%" y1="0%" x2="100%" y2="100%"><stop offset="30%" stop-color="#00adb5" stop-opacity="1"></stop><stop offset="70%" stop-color="#00adb5" stop-opacity="1"></stop></linearGradient></defs><defs><linearGradient id="grad1_1" x1="0%" y1="0%" x2="100%" y2="100%"><stop offset="30%" stop-color="#00adb5" stop-opacity="1"></stop><stop offset="70%" stop-color="#2a657b" stop-opacity="1"></stop></linearGradient></defs><defs><linearGradient id="grad1_2" x1="0%" y1="0%" x2="100%" y2="100%"><stop offset="30%" stop-color="#222831" stop-opacity="1"></stop><stop offset="70%" stop-color="#2a657b" stop-opacity="1"></stop></linearGradient></defs><defs><linearGradient id="grad2_0" x1="0%" y1="0%" x2="100%" y2="100%"><stop offset="30%" stop-color="#00adb5" stop-opacity="1"></stop><stop offset="70%" stop-color="#00adb5" stop-opacity="1"></stop></linearGradient></defs><defs><linearGradient id="grad2_1" x1="0%" y1="0%" x2="100%" y2="100%"><stop offset="30%" stop-color="#2a657b" stop-opacity="1"></stop><stop offset="70%" stop-color="#00adb5" stop-opacity="1"></stop></linearGradient></defs><defs><linearGradient id="grad2_2" x1="0%" y1="0%" x2="100%" y2="100%"><stop offset="30%" stop-color="#2a657b" stop-opacity="1"></stop><stop offset="70%" stop-color="#222831" stop-opacity="1"></stop></linearGradient></defs><g transform="translate(540, 0)"><path d="M0 486C-41.4 467.1 -82.8 448.2 -112.3 419.2C-141.8 390.2 -159.5 351.2 -195.5 338.6C-231.5 326 -286 339.8 -328.8 328.8C-371.6 317.8 -402.7 281.8 -420.9 243C-439.1 204.2 -444.3 162.4 -453 121.4C-461.7 80.4 -473.9 40.2 -486 0L0 0Z" fill="#2c4557"></path><path d="M0 324C-27.6 311.4 -55.2 298.8 -74.9 279.5C-94.6 260.2 -106.3 234.1 -130.3 225.7C-154.4 217.3 -190.7 226.6 -219.2 219.2C-247.7 211.8 -268.5 187.9 -280.6 162C-292.7 136.1 -296.2 108.2 -302 80.9C-307.8 53.6 -315.9 26.8 -324 0L0 0Z" fill="#1a889c"></path><path d="M0 162C-13.8 155.7 -27.6 149.4 -37.4 139.7C-47.3 130.1 -53.2 117.1 -65.2 112.9C-77.2 108.7 -95.3 113.3 -109.6 109.6C-123.9 105.9 -134.2 93.9 -140.3 81C-146.4 68.1 -148.1 54.1 -151 40.5C-153.9 26.8 -158 13.4 -162 0L0 0Z" fill="#00adb5"></path></g><g transform="translate(0, 960)"><path d="M0 -486C43.9 -478.6 87.7 -471.3 118.8 -443.4C149.9 -415.5 168.2 -367.1 195.5 -338.6C222.8 -310.2 259.1 -301.7 279.3 -279.3C299.5 -256.9 303.6 -220.6 338.6 -195.5C373.7 -170.4 439.7 -156.5 469.4 -125.8C499.2 -95.1 492.6 -47.5 486 0L0 0Z" fill="#2c4557"></path><path d="M0 -324C29.2 -319.1 58.5 -314.2 79.2 -295.6C99.9 -277 112.1 -244.7 130.3 -225.7C148.5 -206.8 172.7 -201.1 186.2 -186.2C199.7 -171.3 202.4 -147.1 225.7 -130.3C249.1 -113.6 293.1 -104.3 313 -83.9C332.8 -63.4 328.4 -31.7 324 0L0 0Z" fill="#1a889c"></path><path d="M0 -162C14.6 -159.5 29.2 -157.1 39.6 -147.8C50 -138.5 56.1 -122.4 65.2 -112.9C74.3 -103.4 86.4 -100.6 93.1 -93.1C99.8 -85.6 101.2 -73.5 112.9 -65.2C124.6 -56.8 146.6 -52.2 156.5 -41.9C166.4 -31.7 164.2 -15.8 162 0L0 0Z" fill="#00adb5"></path></g></svg>